<mxfile host="app.diagrams.net" agent="Mozilla/5.0 (Windows NT 10.0; Win64; x64) AppleWebKit/537.36 (KHTML, like Gecko) Chrome/131.0.0.0 Safari/537.36" version="25.0.3" pages="3">
  <diagram name="Modele_Conceptuel" id="YauvPk-F1fpuxmVFumh4">
    <mxGraphModel dx="2117" dy="557" grid="1" gridSize="10" guides="1" tooltips="1" connect="1" arrows="1" fold="1" page="1" pageScale="1" pageWidth="827" pageHeight="1169" math="0" shadow="0">
      <root>
        <mxCell id="2UzMBbFxG-jk5nLvKuJf-0" />
        <mxCell id="2UzMBbFxG-jk5nLvKuJf-1" parent="2UzMBbFxG-jk5nLvKuJf-0" />
        <mxCell id="2UzMBbFxG-jk5nLvKuJf-2" value="&lt;p style=&quot;margin:0px;margin-top:4px;text-align:center;text-decoration:underline;&quot;&gt;&lt;b&gt;Film&lt;/b&gt;&lt;/p&gt;&lt;hr size=&quot;1&quot; style=&quot;border-style:solid;&quot;&gt;&lt;p style=&quot;margin:0px;margin-left:8px;&quot;&gt;- &lt;u&gt;id : int&lt;/u&gt;&lt;/p&gt;&lt;p style=&quot;margin:0px;margin-left:8px;&quot;&gt;- id_collection * : int&lt;/p&gt;&lt;p style=&quot;margin:0px;margin-left:8px;&quot;&gt;- id_directeur * : int&lt;/p&gt;&lt;p style=&quot;margin:0px;margin-left:8px;&quot;&gt;- title : str&lt;/p&gt;&lt;p style=&quot;margin:0px;margin-left:8px;&quot;&gt;- release_date : date&lt;/p&gt;&lt;p style=&quot;margin:0px;margin-left:8px;&quot;&gt;- popularity : float&lt;/p&gt;&lt;p style=&quot;margin:0px;margin-left:8px;&quot;&gt;- runtime : float&lt;/p&gt;&lt;p style=&quot;margin:0px;margin-left:8px;&quot;&gt;- budget :&amp;nbsp; float&lt;/p&gt;&lt;p style=&quot;margin:0px;margin-left:8px;&quot;&gt;- revenue : float&lt;/p&gt;&lt;p style=&quot;margin: 0px 0px 0px 8px;&quot;&gt;- overwiew : text&lt;/p&gt;&lt;p style=&quot;margin: 0px 0px 0px 8px;&quot;&gt;- tagline : text&lt;/p&gt;&lt;p style=&quot;margin: 0px 0px 0px 8px;&quot;&gt;- poster_path (à préparer) : str&lt;/p&gt;&lt;p style=&quot;margin: 0px 0px 0px 8px;&quot;&gt;- vote_count : int&lt;/p&gt;&lt;p style=&quot;margin: 0px 0px 0px 8px;&quot;&gt;- vote_average : float&lt;/p&gt;" style="verticalAlign=top;align=left;overflow=fill;html=1;whiteSpace=wrap;" parent="2UzMBbFxG-jk5nLvKuJf-1" vertex="1">
          <mxGeometry x="310" y="200" width="160" height="270" as="geometry" />
        </mxCell>
        <mxCell id="2UzMBbFxG-jk5nLvKuJf-3" value="&lt;p style=&quot;margin:0px;margin-top:4px;text-align:center;text-decoration:underline;&quot;&gt;&lt;b&gt;Genre&lt;/b&gt;&lt;/p&gt;&lt;hr size=&quot;1&quot; style=&quot;border-style:solid;&quot;&gt;&lt;p style=&quot;margin:0px;margin-left:8px;&quot;&gt;&lt;u&gt;- id : int&lt;/u&gt;&lt;/p&gt;&lt;p style=&quot;margin:0px;margin-left:8px;&quot;&gt;- genre : str&lt;/p&gt;" style="verticalAlign=top;align=left;overflow=fill;html=1;whiteSpace=wrap;" parent="2UzMBbFxG-jk5nLvKuJf-1" vertex="1">
          <mxGeometry x="50" y="50" width="160" height="100" as="geometry" />
        </mxCell>
        <mxCell id="2UzMBbFxG-jk5nLvKuJf-5" style="edgeStyle=orthogonalEdgeStyle;rounded=0;orthogonalLoop=1;jettySize=auto;html=1;endArrow=none;endFill=0;exitX=0;exitY=0.5;exitDx=0;exitDy=0;entryX=1;entryY=0.75;entryDx=0;entryDy=0;" parent="2UzMBbFxG-jk5nLvKuJf-1" source="2UzMBbFxG-jk5nLvKuJf-6" target="2UzMBbFxG-jk5nLvKuJf-2" edge="1">
          <mxGeometry relative="1" as="geometry">
            <mxPoint x="920" y="430" as="sourcePoint" />
            <mxPoint x="740" y="410" as="targetPoint" />
          </mxGeometry>
        </mxCell>
        <mxCell id="2UzMBbFxG-jk5nLvKuJf-6" value="&lt;p style=&quot;margin:0px;margin-top:4px;text-align:center;text-decoration:underline;&quot;&gt;&lt;b&gt;Langage&lt;/b&gt;&lt;/p&gt;&lt;hr size=&quot;1&quot; style=&quot;border-style:solid;&quot;&gt;&lt;p style=&quot;margin:0px;margin-left:8px;&quot;&gt;- &lt;u&gt;id : int&lt;/u&gt;&lt;/p&gt;&lt;p style=&quot;margin:0px;margin-left:8px;&quot;&gt;- langage : str&lt;/p&gt;&lt;p style=&quot;margin:0px;margin-left:8px;&quot;&gt;- original : boolean&lt;/p&gt;" style="verticalAlign=top;align=left;overflow=fill;html=1;whiteSpace=wrap;" parent="2UzMBbFxG-jk5nLvKuJf-1" vertex="1">
          <mxGeometry x="1009" y="466" width="160" height="100" as="geometry" />
        </mxCell>
        <mxCell id="2UzMBbFxG-jk5nLvKuJf-10" value="*" style="text;align=center;fontStyle=1;verticalAlign=middle;spacingLeft=3;spacingRight=3;strokeColor=none;rotatable=0;points=[[0,0.5],[1,0.5]];portConstraint=eastwest;html=1;" parent="2UzMBbFxG-jk5nLvKuJf-1" vertex="1">
          <mxGeometry x="959" y="488" width="50" height="26" as="geometry" />
        </mxCell>
        <mxCell id="2UzMBbFxG-jk5nLvKuJf-16" value="*" style="text;align=center;fontStyle=1;verticalAlign=middle;spacingLeft=3;spacingRight=3;strokeColor=none;rotatable=0;points=[[0,0.5],[1,0.5]];portConstraint=eastwest;html=1;" parent="2UzMBbFxG-jk5nLvKuJf-1" vertex="1">
          <mxGeometry x="340" y="166" width="50" height="26" as="geometry" />
        </mxCell>
        <mxCell id="2UzMBbFxG-jk5nLvKuJf-17" style="edgeStyle=orthogonalEdgeStyle;rounded=0;orthogonalLoop=1;jettySize=auto;html=1;exitX=1;exitY=0.5;exitDx=0;exitDy=0;endArrow=none;endFill=0;entryX=0.5;entryY=0;entryDx=0;entryDy=0;" parent="2UzMBbFxG-jk5nLvKuJf-1" source="2UzMBbFxG-jk5nLvKuJf-3" target="2UzMBbFxG-jk5nLvKuJf-2" edge="1">
          <mxGeometry relative="1" as="geometry">
            <mxPoint x="400" y="160" as="sourcePoint" />
            <mxPoint x="310" y="82" as="targetPoint" />
            <Array as="points">
              <mxPoint x="210" y="80" />
              <mxPoint x="260" y="80" />
              <mxPoint x="260" y="82" />
              <mxPoint x="390" y="82" />
            </Array>
          </mxGeometry>
        </mxCell>
        <mxCell id="2UzMBbFxG-jk5nLvKuJf-23" value="&lt;p style=&quot;margin:0px;margin-top:4px;text-align:center;text-decoration:underline;&quot;&gt;&lt;b&gt;Production_Company&lt;/b&gt;&lt;/p&gt;&lt;hr size=&quot;1&quot; style=&quot;border-style:solid;&quot;&gt;&lt;p style=&quot;margin:0px;margin-left:8px;&quot;&gt;- &lt;u&gt;id : int&lt;/u&gt;&lt;/p&gt;&lt;p style=&quot;margin:0px;margin-left:8px;&quot;&gt;- company : str&lt;/p&gt;" style="verticalAlign=top;align=left;overflow=fill;html=1;whiteSpace=wrap;" parent="2UzMBbFxG-jk5nLvKuJf-1" vertex="1">
          <mxGeometry x="600" y="40" width="160" height="100" as="geometry" />
        </mxCell>
        <mxCell id="2UzMBbFxG-jk5nLvKuJf-25" style="edgeStyle=orthogonalEdgeStyle;rounded=0;orthogonalLoop=1;jettySize=auto;html=1;exitX=0.5;exitY=1;exitDx=0;exitDy=0;endArrow=none;endFill=0;entryX=1;entryY=0.5;entryDx=0;entryDy=0;" parent="2UzMBbFxG-jk5nLvKuJf-1" source="2UzMBbFxG-jk5nLvKuJf-23" target="2UzMBbFxG-jk5nLvKuJf-2" edge="1">
          <mxGeometry relative="1" as="geometry">
            <mxPoint x="585" y="232" as="sourcePoint" />
            <mxPoint x="399" y="240" as="targetPoint" />
          </mxGeometry>
        </mxCell>
        <mxCell id="2UzMBbFxG-jk5nLvKuJf-27" value="*" style="text;align=center;fontStyle=1;verticalAlign=middle;spacingLeft=3;spacingRight=3;strokeColor=none;rotatable=0;points=[[0,0.5],[1,0.5]];portConstraint=eastwest;html=1;" parent="2UzMBbFxG-jk5nLvKuJf-1" vertex="1">
          <mxGeometry x="470" y="300" width="50" height="26" as="geometry" />
        </mxCell>
        <mxCell id="2UzMBbFxG-jk5nLvKuJf-30" value="*" style="text;align=center;fontStyle=1;verticalAlign=middle;spacingLeft=3;spacingRight=3;strokeColor=none;rotatable=0;points=[[0,0.5],[1,0.5]];portConstraint=eastwest;html=1;" parent="2UzMBbFxG-jk5nLvKuJf-1" vertex="1">
          <mxGeometry x="690" y="140" width="50" height="26" as="geometry" />
        </mxCell>
        <mxCell id="2UzMBbFxG-jk5nLvKuJf-38" value="&lt;p style=&quot;margin:0px;margin-top:4px;text-align:center;text-decoration:underline;&quot;&gt;&lt;b&gt;Collection&lt;/b&gt;&lt;/p&gt;&lt;hr size=&quot;1&quot; style=&quot;border-style:solid;&quot;&gt;&lt;p style=&quot;margin:0px;margin-left:8px;&quot;&gt;- &lt;u&gt;id : int&lt;/u&gt;&lt;/p&gt;&lt;p style=&quot;margin:0px;margin-left:8px;&quot;&gt;- id_film * : str&lt;/p&gt;&lt;p style=&quot;margin:0px;margin-left:8px;&quot;&gt;- name : str&lt;/p&gt;&lt;p style=&quot;margin:0px;margin-left:8px;&quot;&gt;&lt;br&gt;&lt;/p&gt;" style="verticalAlign=top;align=left;overflow=fill;html=1;whiteSpace=wrap;" parent="2UzMBbFxG-jk5nLvKuJf-1" vertex="1">
          <mxGeometry x="310" y="548" width="160" height="110" as="geometry" />
        </mxCell>
        <mxCell id="2UzMBbFxG-jk5nLvKuJf-43" style="edgeStyle=orthogonalEdgeStyle;rounded=0;orthogonalLoop=1;jettySize=auto;html=1;endArrow=none;endFill=0;exitX=0.5;exitY=1;exitDx=0;exitDy=0;entryX=0.5;entryY=0;entryDx=0;entryDy=0;" parent="2UzMBbFxG-jk5nLvKuJf-1" target="2UzMBbFxG-jk5nLvKuJf-38" edge="1">
          <mxGeometry relative="1" as="geometry">
            <mxPoint x="390" y="468" as="sourcePoint" />
            <mxPoint x="530" y="568" as="targetPoint" />
            <Array as="points">
              <mxPoint x="390" y="538" />
              <mxPoint x="390" y="538" />
            </Array>
          </mxGeometry>
        </mxCell>
        <mxCell id="v6lag2_lKAMTokFdCcw8-0" value="&lt;p style=&quot;margin:0px;margin-top:4px;text-align:center;text-decoration:underline;&quot;&gt;&lt;b&gt;Directeur&lt;/b&gt;&lt;/p&gt;&lt;hr size=&quot;1&quot; style=&quot;border-style:solid;&quot;&gt;&lt;p style=&quot;margin:0px;margin-left:8px;&quot;&gt;- &lt;u&gt;id : int&lt;/u&gt;&lt;/p&gt;&lt;p style=&quot;margin:0px;margin-left:8px;&quot;&gt;- nom : str&lt;/p&gt;&lt;p style=&quot;margin:0px;margin-left:8px;&quot;&gt;- prenom : str&lt;/p&gt;" style="verticalAlign=top;align=left;overflow=fill;html=1;whiteSpace=wrap;" parent="2UzMBbFxG-jk5nLvKuJf-1" vertex="1">
          <mxGeometry x="-190" y="150" width="160" height="100" as="geometry" />
        </mxCell>
        <mxCell id="v6lag2_lKAMTokFdCcw8-2" value="&lt;p style=&quot;margin:0px;margin-top:4px;text-align:center;text-decoration:underline;&quot;&gt;&lt;b&gt;Acteur&lt;/b&gt;&lt;/p&gt;&lt;hr size=&quot;1&quot; style=&quot;border-style:solid;&quot;&gt;&lt;p style=&quot;margin:0px;margin-left:8px;&quot;&gt;- &lt;u&gt;id : int&lt;/u&gt;&lt;/p&gt;&lt;p style=&quot;margin:0px;margin-left:8px;&quot;&gt;- nom : str&lt;/p&gt;&lt;p style=&quot;margin:0px;margin-left:8px;&quot;&gt;- prenom : str&lt;/p&gt;" style="verticalAlign=top;align=left;overflow=fill;html=1;whiteSpace=wrap;" parent="2UzMBbFxG-jk5nLvKuJf-1" vertex="1">
          <mxGeometry x="-170" y="320" width="160" height="100" as="geometry" />
        </mxCell>
        <mxCell id="v6lag2_lKAMTokFdCcw8-3" style="edgeStyle=orthogonalEdgeStyle;rounded=0;orthogonalLoop=1;jettySize=auto;html=1;exitX=1;exitY=0.5;exitDx=0;exitDy=0;endArrow=none;endFill=0;entryX=0;entryY=0;entryDx=0;entryDy=0;" parent="2UzMBbFxG-jk5nLvKuJf-1" source="v6lag2_lKAMTokFdCcw8-0" target="2UzMBbFxG-jk5nLvKuJf-2" edge="1">
          <mxGeometry relative="1" as="geometry">
            <mxPoint x="49.75" y="375" as="sourcePoint" />
            <mxPoint x="109.75" y="340" as="targetPoint" />
            <Array as="points">
              <mxPoint x="220" y="200" />
              <mxPoint x="220" y="200" />
            </Array>
          </mxGeometry>
        </mxCell>
        <mxCell id="v6lag2_lKAMTokFdCcw8-4" value="0..1" style="text;align=center;fontStyle=1;verticalAlign=middle;spacingLeft=3;spacingRight=3;strokeColor=none;rotatable=0;points=[[0,0.5],[1,0.5]];portConstraint=eastwest;html=1;" parent="2UzMBbFxG-jk5nLvKuJf-1" vertex="1">
          <mxGeometry x="-30" y="174" width="50" height="26" as="geometry" />
        </mxCell>
        <mxCell id="v6lag2_lKAMTokFdCcw8-5" value="*" style="text;align=center;fontStyle=1;verticalAlign=middle;spacingLeft=3;spacingRight=3;strokeColor=none;rotatable=0;points=[[0,0.5],[1,0.5]];portConstraint=eastwest;html=1;" parent="2UzMBbFxG-jk5nLvKuJf-1" vertex="1">
          <mxGeometry x="260" y="200" width="50" height="26" as="geometry" />
        </mxCell>
        <mxCell id="v6lag2_lKAMTokFdCcw8-9" value="*" style="text;align=center;fontStyle=1;verticalAlign=middle;spacingLeft=3;spacingRight=3;strokeColor=none;rotatable=0;points=[[0,0.5],[1,0.5]];portConstraint=eastwest;html=1;" parent="2UzMBbFxG-jk5nLvKuJf-1" vertex="1">
          <mxGeometry x="-10" y="370" width="50" height="26" as="geometry" />
        </mxCell>
        <mxCell id="bw-bmElaB9IqUnMvs87G-3" value="*" style="text;align=center;fontStyle=1;verticalAlign=middle;spacingLeft=3;spacingRight=3;strokeColor=none;rotatable=0;points=[[0,0.5],[1,0.5]];portConstraint=eastwest;html=1;" parent="2UzMBbFxG-jk5nLvKuJf-1" vertex="1">
          <mxGeometry x="470" y="370" width="50" height="26" as="geometry" />
        </mxCell>
        <mxCell id="D5rh6VKLGtbffhpy3Fn9-0" value="*" style="text;align=center;fontStyle=1;verticalAlign=middle;spacingLeft=3;spacingRight=3;strokeColor=none;rotatable=0;points=[[0,0.5],[1,0.5]];portConstraint=eastwest;html=1;" parent="2UzMBbFxG-jk5nLvKuJf-1" vertex="1">
          <mxGeometry x="379" y="468" width="50" height="26" as="geometry" />
        </mxCell>
        <mxCell id="D5rh6VKLGtbffhpy3Fn9-1" value="1" style="text;align=center;fontStyle=1;verticalAlign=middle;spacingLeft=3;spacingRight=3;strokeColor=none;rotatable=0;points=[[0,0.5],[1,0.5]];portConstraint=eastwest;html=1;" parent="2UzMBbFxG-jk5nLvKuJf-1" vertex="1">
          <mxGeometry x="320" y="518" width="50" height="26" as="geometry" />
        </mxCell>
        <mxCell id="rLs_YXUpELrccC4LqPro-0" style="edgeStyle=orthogonalEdgeStyle;rounded=0;orthogonalLoop=1;jettySize=auto;html=1;exitX=0;exitY=0.5;exitDx=0;exitDy=0;endArrow=none;endFill=0;entryX=1;entryY=0.5;entryDx=0;entryDy=0;" edge="1" parent="2UzMBbFxG-jk5nLvKuJf-1" source="2UzMBbFxG-jk5nLvKuJf-2" target="v6lag2_lKAMTokFdCcw8-2">
          <mxGeometry relative="1" as="geometry">
            <mxPoint x="240" y="349" as="sourcePoint" />
            <mxPoint x="30" y="544" as="targetPoint" />
          </mxGeometry>
        </mxCell>
        <mxCell id="rLs_YXUpELrccC4LqPro-1" value="*" style="text;align=center;fontStyle=1;verticalAlign=middle;spacingLeft=3;spacingRight=3;strokeColor=none;rotatable=0;points=[[0,0.5],[1,0.5]];portConstraint=eastwest;html=1;" vertex="1" parent="2UzMBbFxG-jk5nLvKuJf-1">
          <mxGeometry x="260" y="310" width="50" height="26" as="geometry" />
        </mxCell>
        <mxCell id="rLs_YXUpELrccC4LqPro-2" value="*" style="text;align=center;fontStyle=1;verticalAlign=middle;spacingLeft=3;spacingRight=3;strokeColor=none;rotatable=0;points=[[0,0.5],[1,0.5]];portConstraint=eastwest;html=1;" vertex="1" parent="2UzMBbFxG-jk5nLvKuJf-1">
          <mxGeometry x="210" y="50" width="50" height="26" as="geometry" />
        </mxCell>
      </root>
    </mxGraphModel>
  </diagram>
  <diagram name="Modèle_Relationnel" id="qiHUkySpZ16ntOEkn7Ta">
    <mxGraphModel dx="1877" dy="557" grid="1" gridSize="10" guides="1" tooltips="1" connect="1" arrows="1" fold="1" page="1" pageScale="1" pageWidth="827" pageHeight="1169" math="0" shadow="0">
      <root>
        <mxCell id="-5b9izDr8CAmfkEd_c0v-0" />
        <mxCell id="-5b9izDr8CAmfkEd_c0v-1" parent="-5b9izDr8CAmfkEd_c0v-0" />
        <mxCell id="-5b9izDr8CAmfkEd_c0v-2" value="&lt;p style=&quot;margin:0px;margin-top:4px;text-align:center;text-decoration:underline;&quot;&gt;&lt;b&gt;Film&lt;/b&gt;&lt;/p&gt;&lt;hr size=&quot;1&quot; style=&quot;border-style:solid;&quot;&gt;&lt;p style=&quot;margin:0px;margin-left:8px;&quot;&gt;- &lt;u&gt;id : int&lt;/u&gt;&lt;/p&gt;&lt;p style=&quot;margin:0px;margin-left:8px;&quot;&gt;- id_collection * : int&lt;/p&gt;&lt;p style=&quot;margin:0px;margin-left:8px;&quot;&gt;- id_directeur * : int&lt;/p&gt;&lt;p style=&quot;margin:0px;margin-left:8px;&quot;&gt;- title : str&lt;/p&gt;&lt;p style=&quot;margin:0px;margin-left:8px;&quot;&gt;- release_date : date&lt;/p&gt;&lt;p style=&quot;margin:0px;margin-left:8px;&quot;&gt;- popularity : float&lt;/p&gt;&lt;p style=&quot;margin:0px;margin-left:8px;&quot;&gt;- runtime : float&lt;/p&gt;&lt;p style=&quot;margin:0px;margin-left:8px;&quot;&gt;- budget :&amp;nbsp; float&lt;/p&gt;&lt;p style=&quot;margin:0px;margin-left:8px;&quot;&gt;- revenue : float&lt;/p&gt;&lt;p style=&quot;margin: 0px 0px 0px 8px;&quot;&gt;- overwiew : text&lt;/p&gt;&lt;p style=&quot;margin: 0px 0px 0px 8px;&quot;&gt;- tagline : text&lt;/p&gt;&lt;p style=&quot;margin: 0px 0px 0px 8px;&quot;&gt;- poster_path (à préparer) : str&lt;/p&gt;&lt;p style=&quot;margin: 0px 0px 0px 8px;&quot;&gt;- vote_count : int&lt;/p&gt;&lt;p style=&quot;margin: 0px 0px 0px 8px;&quot;&gt;- vote_average : float&lt;/p&gt;" style="verticalAlign=top;align=left;overflow=fill;html=1;whiteSpace=wrap;" vertex="1" parent="-5b9izDr8CAmfkEd_c0v-1">
          <mxGeometry x="310" y="200" width="160" height="270" as="geometry" />
        </mxCell>
        <mxCell id="-5b9izDr8CAmfkEd_c0v-3" value="&lt;p style=&quot;margin:0px;margin-top:4px;text-align:center;text-decoration:underline;&quot;&gt;&lt;b&gt;Genre&lt;/b&gt;&lt;/p&gt;&lt;hr size=&quot;1&quot; style=&quot;border-style:solid;&quot;&gt;&lt;p style=&quot;margin:0px;margin-left:8px;&quot;&gt;- &lt;u&gt;id&lt;/u&gt; : int&lt;/p&gt;&lt;p style=&quot;margin:0px;margin-left:8px;&quot;&gt;- genre : str&lt;/p&gt;" style="verticalAlign=top;align=left;overflow=fill;html=1;whiteSpace=wrap;" vertex="1" parent="-5b9izDr8CAmfkEd_c0v-1">
          <mxGeometry x="50" y="50" width="160" height="100" as="geometry" />
        </mxCell>
        <mxCell id="-5b9izDr8CAmfkEd_c0v-4" value="&lt;p style=&quot;margin:0px;margin-top:4px;text-align:center;text-decoration:underline;&quot;&gt;&lt;b&gt;Genre_film&lt;/b&gt;&lt;/p&gt;&lt;hr size=&quot;1&quot; style=&quot;border-style:solid;&quot;&gt;&lt;p style=&quot;margin:0px;margin-left:8px;&quot;&gt;&lt;span style=&quot;background-color: initial;&quot;&gt;&lt;u&gt;- id_film * : int&amp;nbsp;&lt;/u&gt;&lt;/span&gt;&lt;/p&gt;&lt;p style=&quot;margin:0px;margin-left:8px;&quot;&gt;&lt;u&gt;- id_genre * : int&lt;/u&gt;&lt;/p&gt;&lt;p style=&quot;margin:0px;margin-left:8px;&quot;&gt;&lt;br&gt;&lt;/p&gt;&lt;p style=&quot;margin:0px;margin-left:8px;&quot;&gt;&lt;br&gt;&lt;/p&gt;&lt;p style=&quot;margin:0px;margin-left:8px;&quot;&gt;&lt;br&gt;&lt;/p&gt;&lt;p style=&quot;margin:0px;margin-left:8px;&quot;&gt;Traitement à faire sous python pour la colonne genre (| en séparateur)&lt;/p&gt;" style="verticalAlign=top;align=left;overflow=fill;html=1;whiteSpace=wrap;" vertex="1" parent="-5b9izDr8CAmfkEd_c0v-1">
          <mxGeometry x="310" y="32" width="160" height="100" as="geometry" />
        </mxCell>
        <mxCell id="-5b9izDr8CAmfkEd_c0v-5" style="edgeStyle=orthogonalEdgeStyle;rounded=0;orthogonalLoop=1;jettySize=auto;html=1;endArrow=none;endFill=0;exitX=0;exitY=0.5;exitDx=0;exitDy=0;" edge="1" parent="-5b9izDr8CAmfkEd_c0v-1" source="-5b9izDr8CAmfkEd_c0v-6" target="-5b9izDr8CAmfkEd_c0v-7">
          <mxGeometry relative="1" as="geometry">
            <mxPoint x="920" y="430" as="sourcePoint" />
          </mxGeometry>
        </mxCell>
        <mxCell id="-5b9izDr8CAmfkEd_c0v-6" value="&lt;p style=&quot;margin:0px;margin-top:4px;text-align:center;text-decoration:underline;&quot;&gt;&lt;b&gt;Langage&lt;/b&gt;&lt;/p&gt;&lt;hr size=&quot;1&quot; style=&quot;border-style:solid;&quot;&gt;&lt;p style=&quot;margin:0px;margin-left:8px;&quot;&gt;- &lt;u&gt;id : int&lt;/u&gt;&lt;/p&gt;&lt;p style=&quot;margin:0px;margin-left:8px;&quot;&gt;- langage : str&lt;/p&gt;" style="verticalAlign=top;align=left;overflow=fill;html=1;whiteSpace=wrap;" vertex="1" parent="-5b9izDr8CAmfkEd_c0v-1">
          <mxGeometry x="1009" y="466" width="160" height="100" as="geometry" />
        </mxCell>
        <mxCell id="-5b9izDr8CAmfkEd_c0v-7" value="&lt;p style=&quot;margin:0px;margin-top:4px;text-align:center;text-decoration:underline;&quot;&gt;&lt;b&gt;Original_spoken&lt;/b&gt;&lt;/p&gt;&lt;hr size=&quot;1&quot; style=&quot;border-style:solid;&quot;&gt;&lt;p style=&quot;margin:0px;margin-left:8px;&quot;&gt;&lt;span style=&quot;background-color: initial;&quot;&gt;&lt;u&gt;- id_lang * : int&lt;/u&gt;&lt;/span&gt;&lt;/p&gt;&lt;p style=&quot;margin:0px;margin-left:8px;&quot;&gt;&lt;u&gt;- id_film * : int&lt;/u&gt;&lt;/p&gt;&lt;p style=&quot;margin:0px;margin-left:8px;&quot;&gt;- original : boolean&lt;/p&gt;&lt;p style=&quot;margin:0px;margin-left:8px;&quot;&gt;&lt;br&gt;&lt;/p&gt;&lt;p style=&quot;margin:0px;margin-left:8px;&quot;&gt;&lt;br&gt;&lt;/p&gt;&lt;p style=&quot;margin:0px;margin-left:8px;&quot;&gt;traitement à gérer sous python (original_langage et spoken_langage)&lt;/p&gt;" style="verticalAlign=top;align=left;overflow=fill;html=1;whiteSpace=wrap;" vertex="1" parent="-5b9izDr8CAmfkEd_c0v-1">
          <mxGeometry x="660" y="322" width="160" height="100" as="geometry" />
        </mxCell>
        <mxCell id="-5b9izDr8CAmfkEd_c0v-8" value="1" style="text;align=center;fontStyle=1;verticalAlign=middle;spacingLeft=3;spacingRight=3;strokeColor=none;rotatable=0;points=[[0,0.5],[1,0.5]];portConstraint=eastwest;html=1;" vertex="1" parent="-5b9izDr8CAmfkEd_c0v-1">
          <mxGeometry x="959" y="488" width="50" height="26" as="geometry" />
        </mxCell>
        <mxCell id="-5b9izDr8CAmfkEd_c0v-9" value="*" style="text;align=center;fontStyle=1;verticalAlign=middle;spacingLeft=3;spacingRight=3;strokeColor=none;rotatable=0;points=[[0,0.5],[1,0.5]];portConstraint=eastwest;html=1;" vertex="1" parent="-5b9izDr8CAmfkEd_c0v-1">
          <mxGeometry x="610" y="382" width="50" height="26" as="geometry" />
        </mxCell>
        <mxCell id="-5b9izDr8CAmfkEd_c0v-10" style="edgeStyle=orthogonalEdgeStyle;rounded=0;orthogonalLoop=1;jettySize=auto;html=1;exitX=1;exitY=0.748;exitDx=0;exitDy=0;endArrow=none;endFill=0;exitPerimeter=0;" edge="1" parent="-5b9izDr8CAmfkEd_c0v-1" source="-5b9izDr8CAmfkEd_c0v-2" target="-5b9izDr8CAmfkEd_c0v-7">
          <mxGeometry relative="1" as="geometry">
            <mxPoint x="210" y="450" as="sourcePoint" />
            <mxPoint x="320" y="450" as="targetPoint" />
          </mxGeometry>
        </mxCell>
        <mxCell id="-5b9izDr8CAmfkEd_c0v-11" value="1" style="text;align=center;fontStyle=1;verticalAlign=middle;spacingLeft=3;spacingRight=3;strokeColor=none;rotatable=0;points=[[0,0.5],[1,0.5]];portConstraint=eastwest;html=1;" vertex="1" parent="-5b9izDr8CAmfkEd_c0v-1">
          <mxGeometry x="714" y="176" width="50" height="26" as="geometry" />
        </mxCell>
        <mxCell id="-5b9izDr8CAmfkEd_c0v-12" style="edgeStyle=orthogonalEdgeStyle;rounded=0;orthogonalLoop=1;jettySize=auto;html=1;exitX=0.5;exitY=1;exitDx=0;exitDy=0;endArrow=none;endFill=0;" edge="1" parent="-5b9izDr8CAmfkEd_c0v-1" source="-5b9izDr8CAmfkEd_c0v-4">
          <mxGeometry relative="1" as="geometry">
            <mxPoint x="389" y="170" as="sourcePoint" />
            <mxPoint x="389" y="200" as="targetPoint" />
          </mxGeometry>
        </mxCell>
        <mxCell id="-5b9izDr8CAmfkEd_c0v-13" value="1" style="text;align=center;fontStyle=1;verticalAlign=middle;spacingLeft=3;spacingRight=3;strokeColor=none;rotatable=0;points=[[0,0.5],[1,0.5]];portConstraint=eastwest;html=1;" vertex="1" parent="-5b9izDr8CAmfkEd_c0v-1">
          <mxGeometry x="396" y="174" width="50" height="26" as="geometry" />
        </mxCell>
        <mxCell id="-5b9izDr8CAmfkEd_c0v-14" value="*" style="text;align=center;fontStyle=1;verticalAlign=middle;spacingLeft=3;spacingRight=3;strokeColor=none;rotatable=0;points=[[0,0.5],[1,0.5]];portConstraint=eastwest;html=1;" vertex="1" parent="-5b9izDr8CAmfkEd_c0v-1">
          <mxGeometry x="340" y="150" width="50" height="26" as="geometry" />
        </mxCell>
        <mxCell id="-5b9izDr8CAmfkEd_c0v-15" style="edgeStyle=orthogonalEdgeStyle;rounded=0;orthogonalLoop=1;jettySize=auto;html=1;exitX=1;exitY=0.5;exitDx=0;exitDy=0;endArrow=none;endFill=0;entryX=0;entryY=0.5;entryDx=0;entryDy=0;" edge="1" parent="-5b9izDr8CAmfkEd_c0v-1" source="-5b9izDr8CAmfkEd_c0v-3" target="-5b9izDr8CAmfkEd_c0v-4">
          <mxGeometry relative="1" as="geometry">
            <mxPoint x="400" y="160" as="sourcePoint" />
            <mxPoint x="399" y="240" as="targetPoint" />
            <Array as="points">
              <mxPoint x="210" y="80" />
              <mxPoint x="260" y="80" />
              <mxPoint x="260" y="82" />
            </Array>
          </mxGeometry>
        </mxCell>
        <mxCell id="-5b9izDr8CAmfkEd_c0v-16" value="*" style="text;align=center;fontStyle=1;verticalAlign=middle;spacingLeft=3;spacingRight=3;strokeColor=none;rotatable=0;points=[[0,0.5],[1,0.5]];portConstraint=eastwest;html=1;" vertex="1" parent="-5b9izDr8CAmfkEd_c0v-1">
          <mxGeometry x="260" y="50" width="50" height="26" as="geometry" />
        </mxCell>
        <mxCell id="-5b9izDr8CAmfkEd_c0v-17" value="1" style="text;align=center;fontStyle=1;verticalAlign=middle;spacingLeft=3;spacingRight=3;strokeColor=none;rotatable=0;points=[[0,0.5],[1,0.5]];portConstraint=eastwest;html=1;" vertex="1" parent="-5b9izDr8CAmfkEd_c0v-1">
          <mxGeometry x="210" y="87" width="50" height="26" as="geometry" />
        </mxCell>
        <mxCell id="-5b9izDr8CAmfkEd_c0v-18" value="&lt;p style=&quot;margin:0px;margin-top:4px;text-align:center;text-decoration:underline;&quot;&gt;&lt;b&gt;Production_Company&lt;/b&gt;&lt;/p&gt;&lt;hr size=&quot;1&quot; style=&quot;border-style:solid;&quot;&gt;&lt;p style=&quot;margin:0px;margin-left:8px;&quot;&gt;- &lt;u&gt;id : int&lt;/u&gt;&lt;/p&gt;&lt;p style=&quot;margin:0px;margin-left:8px;&quot;&gt;- company : str&lt;/p&gt;" style="verticalAlign=top;align=left;overflow=fill;html=1;whiteSpace=wrap;" vertex="1" parent="-5b9izDr8CAmfkEd_c0v-1">
          <mxGeometry x="600" y="40" width="160" height="100" as="geometry" />
        </mxCell>
        <mxCell id="-5b9izDr8CAmfkEd_c0v-19" value="&lt;p style=&quot;margin:0px;margin-top:4px;text-align:center;text-decoration:underline;&quot;&gt;&lt;b&gt;Assoc_production_company&lt;/b&gt;&lt;/p&gt;&lt;hr size=&quot;1&quot; style=&quot;border-style:solid;&quot;&gt;&lt;p style=&quot;margin:0px;margin-left:8px;&quot;&gt;&lt;span style=&quot;background-color: initial;&quot;&gt;&lt;u&gt;- id_film * : int&lt;/u&gt;&lt;/span&gt;&lt;/p&gt;&lt;p style=&quot;margin:0px;margin-left:8px;&quot;&gt;&lt;u&gt;- id_company * : int&lt;/u&gt;&lt;/p&gt;" style="verticalAlign=top;align=left;overflow=fill;html=1;whiteSpace=wrap;" vertex="1" parent="-5b9izDr8CAmfkEd_c0v-1">
          <mxGeometry x="585" y="182" width="190" height="100" as="geometry" />
        </mxCell>
        <mxCell id="-5b9izDr8CAmfkEd_c0v-20" style="edgeStyle=orthogonalEdgeStyle;rounded=0;orthogonalLoop=1;jettySize=auto;html=1;exitX=0;exitY=0.5;exitDx=0;exitDy=0;endArrow=none;endFill=0;entryX=1;entryY=0.5;entryDx=0;entryDy=0;" edge="1" parent="-5b9izDr8CAmfkEd_c0v-1" source="-5b9izDr8CAmfkEd_c0v-19" target="-5b9izDr8CAmfkEd_c0v-2">
          <mxGeometry relative="1" as="geometry">
            <mxPoint x="400" y="160" as="sourcePoint" />
            <mxPoint x="399" y="240" as="targetPoint" />
          </mxGeometry>
        </mxCell>
        <mxCell id="-5b9izDr8CAmfkEd_c0v-21" value="1" style="text;align=center;fontStyle=1;verticalAlign=middle;spacingLeft=3;spacingRight=3;strokeColor=none;rotatable=0;points=[[0,0.5],[1,0.5]];portConstraint=eastwest;html=1;" vertex="1" parent="-5b9izDr8CAmfkEd_c0v-1">
          <mxGeometry x="470" y="282" width="50" height="26" as="geometry" />
        </mxCell>
        <mxCell id="-5b9izDr8CAmfkEd_c0v-22" value="*" style="text;align=center;fontStyle=1;verticalAlign=middle;spacingLeft=3;spacingRight=3;strokeColor=none;rotatable=0;points=[[0,0.5],[1,0.5]];portConstraint=eastwest;html=1;" vertex="1" parent="-5b9izDr8CAmfkEd_c0v-1">
          <mxGeometry x="535" y="236" width="50" height="26" as="geometry" />
        </mxCell>
        <mxCell id="-5b9izDr8CAmfkEd_c0v-23" style="edgeStyle=orthogonalEdgeStyle;rounded=0;orthogonalLoop=1;jettySize=auto;html=1;exitX=0.5;exitY=1;exitDx=0;exitDy=0;endArrow=none;endFill=0;" edge="1" parent="-5b9izDr8CAmfkEd_c0v-1" source="-5b9izDr8CAmfkEd_c0v-18">
          <mxGeometry relative="1" as="geometry">
            <mxPoint x="595" y="236" as="sourcePoint" />
            <mxPoint x="680" y="180" as="targetPoint" />
          </mxGeometry>
        </mxCell>
        <mxCell id="-5b9izDr8CAmfkEd_c0v-24" value="1" style="text;align=center;fontStyle=1;verticalAlign=middle;spacingLeft=3;spacingRight=3;strokeColor=none;rotatable=0;points=[[0,0.5],[1,0.5]];portConstraint=eastwest;html=1;" vertex="1" parent="-5b9izDr8CAmfkEd_c0v-1">
          <mxGeometry x="620" y="136" width="50" height="34" as="geometry" />
        </mxCell>
        <mxCell id="-5b9izDr8CAmfkEd_c0v-25" value="*" style="text;align=center;fontStyle=1;verticalAlign=middle;spacingLeft=3;spacingRight=3;strokeColor=none;rotatable=0;points=[[0,0.5],[1,0.5]];portConstraint=eastwest;html=1;" vertex="1" parent="-5b9izDr8CAmfkEd_c0v-1">
          <mxGeometry x="690" y="156" width="50" height="26" as="geometry" />
        </mxCell>
        <mxCell id="-5b9izDr8CAmfkEd_c0v-26" value="&lt;p style=&quot;margin:0px;margin-top:4px;text-align:center;text-decoration:underline;&quot;&gt;&lt;b&gt;Collection&lt;/b&gt;&lt;/p&gt;&lt;hr size=&quot;1&quot; style=&quot;border-style:solid;&quot;&gt;&lt;p style=&quot;margin:0px;margin-left:8px;&quot;&gt;- &lt;u&gt;id : int&lt;/u&gt;&lt;/p&gt;&lt;p style=&quot;margin:0px;margin-left:8px;&quot;&gt;- id_film * : str&lt;/p&gt;&lt;p style=&quot;margin:0px;margin-left:8px;&quot;&gt;- name : str&lt;/p&gt;&lt;p style=&quot;margin:0px;margin-left:8px;&quot;&gt;&lt;br&gt;&lt;/p&gt;" style="verticalAlign=top;align=left;overflow=fill;html=1;whiteSpace=wrap;" vertex="1" parent="-5b9izDr8CAmfkEd_c0v-1">
          <mxGeometry x="310" y="548" width="160" height="110" as="geometry" />
        </mxCell>
        <mxCell id="-5b9izDr8CAmfkEd_c0v-27" style="edgeStyle=orthogonalEdgeStyle;rounded=0;orthogonalLoop=1;jettySize=auto;html=1;endArrow=none;endFill=0;exitX=0.5;exitY=1;exitDx=0;exitDy=0;entryX=0.5;entryY=0;entryDx=0;entryDy=0;" edge="1" parent="-5b9izDr8CAmfkEd_c0v-1" target="-5b9izDr8CAmfkEd_c0v-26">
          <mxGeometry relative="1" as="geometry">
            <mxPoint x="390" y="468" as="sourcePoint" />
            <mxPoint x="530" y="568" as="targetPoint" />
            <Array as="points">
              <mxPoint x="390" y="538" />
              <mxPoint x="390" y="538" />
            </Array>
          </mxGeometry>
        </mxCell>
        <mxCell id="-5b9izDr8CAmfkEd_c0v-28" value="&lt;p style=&quot;margin:0px;margin-top:4px;text-align:center;text-decoration:underline;&quot;&gt;&lt;b&gt;Directeur&lt;/b&gt;&lt;/p&gt;&lt;hr size=&quot;1&quot; style=&quot;border-style:solid;&quot;&gt;&lt;p style=&quot;margin:0px;margin-left:8px;&quot;&gt;- &lt;u&gt;id : int&lt;/u&gt;&lt;/p&gt;&lt;p style=&quot;margin:0px;margin-left:8px;&quot;&gt;- nom : str&lt;/p&gt;&lt;p style=&quot;margin:0px;margin-left:8px;&quot;&gt;- prenom : str&lt;/p&gt;" style="verticalAlign=top;align=left;overflow=fill;html=1;whiteSpace=wrap;" vertex="1" parent="-5b9izDr8CAmfkEd_c0v-1">
          <mxGeometry x="-190" y="150" width="160" height="100" as="geometry" />
        </mxCell>
        <mxCell id="-5b9izDr8CAmfkEd_c0v-29" value="&lt;p style=&quot;margin:0px;margin-top:4px;text-align:center;text-decoration:underline;&quot;&gt;&lt;b&gt;Acteur&lt;/b&gt;&lt;/p&gt;&lt;hr size=&quot;1&quot; style=&quot;border-style:solid;&quot;&gt;&lt;p style=&quot;margin:0px;margin-left:8px;&quot;&gt;- &lt;u&gt;id : int&lt;/u&gt;&lt;/p&gt;&lt;p style=&quot;margin:0px;margin-left:8px;&quot;&gt;- nom : str&lt;/p&gt;&lt;p style=&quot;margin:0px;margin-left:8px;&quot;&gt;- prenom : str&lt;/p&gt;" style="verticalAlign=top;align=left;overflow=fill;html=1;whiteSpace=wrap;" vertex="1" parent="-5b9izDr8CAmfkEd_c0v-1">
          <mxGeometry x="-120" y="540" width="160" height="100" as="geometry" />
        </mxCell>
        <mxCell id="-5b9izDr8CAmfkEd_c0v-30" style="edgeStyle=orthogonalEdgeStyle;rounded=0;orthogonalLoop=1;jettySize=auto;html=1;exitX=1;exitY=0.5;exitDx=0;exitDy=0;endArrow=none;endFill=0;entryX=0;entryY=0;entryDx=0;entryDy=0;" edge="1" parent="-5b9izDr8CAmfkEd_c0v-1" source="-5b9izDr8CAmfkEd_c0v-28" target="-5b9izDr8CAmfkEd_c0v-2">
          <mxGeometry relative="1" as="geometry">
            <mxPoint x="49.75" y="375" as="sourcePoint" />
            <mxPoint x="109.75" y="340" as="targetPoint" />
            <Array as="points">
              <mxPoint x="220" y="200" />
              <mxPoint x="220" y="200" />
            </Array>
          </mxGeometry>
        </mxCell>
        <mxCell id="-5b9izDr8CAmfkEd_c0v-31" value="0..1" style="text;align=center;fontStyle=1;verticalAlign=middle;spacingLeft=3;spacingRight=3;strokeColor=none;rotatable=0;points=[[0,0.5],[1,0.5]];portConstraint=eastwest;html=1;" vertex="1" parent="-5b9izDr8CAmfkEd_c0v-1">
          <mxGeometry x="-30" y="174" width="50" height="26" as="geometry" />
        </mxCell>
        <mxCell id="-5b9izDr8CAmfkEd_c0v-32" value="*" style="text;align=center;fontStyle=1;verticalAlign=middle;spacingLeft=3;spacingRight=3;strokeColor=none;rotatable=0;points=[[0,0.5],[1,0.5]];portConstraint=eastwest;html=1;" vertex="1" parent="-5b9izDr8CAmfkEd_c0v-1">
          <mxGeometry x="260" y="200" width="50" height="26" as="geometry" />
        </mxCell>
        <mxCell id="-5b9izDr8CAmfkEd_c0v-33" value="&lt;p style=&quot;margin:0px;margin-top:4px;text-align:center;text-decoration:underline;&quot;&gt;&lt;b&gt;Assoc_acteur_film&lt;/b&gt;&lt;/p&gt;&lt;hr size=&quot;1&quot; style=&quot;border-style:solid;&quot;&gt;&lt;p style=&quot;margin:0px;margin-left:8px;&quot;&gt;&lt;span style=&quot;background-color: initial;&quot;&gt;&lt;u&gt;- id_act * : int&lt;/u&gt;&lt;/span&gt;&lt;/p&gt;&lt;p style=&quot;margin:0px;margin-left:8px;&quot;&gt;&lt;u&gt;- id_film * : int&lt;/u&gt;&lt;/p&gt;" style="verticalAlign=top;align=left;overflow=fill;html=1;whiteSpace=wrap;" vertex="1" parent="-5b9izDr8CAmfkEd_c0v-1">
          <mxGeometry x="-170" y="282" width="160" height="100" as="geometry" />
        </mxCell>
        <mxCell id="-5b9izDr8CAmfkEd_c0v-34" style="edgeStyle=orthogonalEdgeStyle;rounded=0;orthogonalLoop=1;jettySize=auto;html=1;endArrow=none;endFill=0;entryX=0.5;entryY=0;entryDx=0;entryDy=0;exitX=0.5;exitY=1;exitDx=0;exitDy=0;" edge="1" parent="-5b9izDr8CAmfkEd_c0v-1" source="-5b9izDr8CAmfkEd_c0v-33" target="-5b9izDr8CAmfkEd_c0v-29">
          <mxGeometry relative="1" as="geometry">
            <mxPoint x="-90" y="394" as="sourcePoint" />
            <mxPoint x="270" y="790" as="targetPoint" />
            <Array as="points">
              <mxPoint x="-90" y="460" />
              <mxPoint x="-40" y="460" />
            </Array>
          </mxGeometry>
        </mxCell>
        <mxCell id="-5b9izDr8CAmfkEd_c0v-35" value="1" style="text;align=center;fontStyle=1;verticalAlign=middle;spacingLeft=3;spacingRight=3;strokeColor=none;rotatable=0;points=[[0,0.5],[1,0.5]];portConstraint=eastwest;html=1;" vertex="1" parent="-5b9izDr8CAmfkEd_c0v-1">
          <mxGeometry x="-100" y="514" width="50" height="26" as="geometry" />
        </mxCell>
        <mxCell id="-5b9izDr8CAmfkEd_c0v-36" value="*" style="text;align=center;fontStyle=1;verticalAlign=middle;spacingLeft=3;spacingRight=3;strokeColor=none;rotatable=0;points=[[0,0.5],[1,0.5]];portConstraint=eastwest;html=1;" vertex="1" parent="-5b9izDr8CAmfkEd_c0v-1">
          <mxGeometry x="-10" y="304" width="50" height="26" as="geometry" />
        </mxCell>
        <mxCell id="-5b9izDr8CAmfkEd_c0v-37" value="1" style="text;align=center;fontStyle=1;verticalAlign=middle;spacingLeft=3;spacingRight=3;strokeColor=none;rotatable=0;points=[[0,0.5],[1,0.5]];portConstraint=eastwest;html=1;" vertex="1" parent="-5b9izDr8CAmfkEd_c0v-1">
          <mxGeometry x="270" y="236" width="50" height="26" as="geometry" />
        </mxCell>
        <mxCell id="-5b9izDr8CAmfkEd_c0v-38" style="edgeStyle=orthogonalEdgeStyle;rounded=0;orthogonalLoop=1;jettySize=auto;html=1;endArrow=none;endFill=0;entryX=1;entryY=0.5;entryDx=0;entryDy=0;exitX=0;exitY=0.25;exitDx=0;exitDy=0;" edge="1" parent="-5b9izDr8CAmfkEd_c0v-1" source="-5b9izDr8CAmfkEd_c0v-2" target="-5b9izDr8CAmfkEd_c0v-33">
          <mxGeometry relative="1" as="geometry">
            <mxPoint x="360" y="277.25" as="sourcePoint" />
            <mxPoint x="220" y="398.75" as="targetPoint" />
            <Array as="points">
              <mxPoint x="250" y="233" />
              <mxPoint x="250" y="332" />
            </Array>
          </mxGeometry>
        </mxCell>
        <mxCell id="-5b9izDr8CAmfkEd_c0v-39" value="*" style="text;align=center;fontStyle=1;verticalAlign=middle;spacingLeft=3;spacingRight=3;strokeColor=none;rotatable=0;points=[[0,0.5],[1,0.5]];portConstraint=eastwest;html=1;" vertex="1" parent="-5b9izDr8CAmfkEd_c0v-1">
          <mxGeometry x="-90" y="382" width="50" height="26" as="geometry" />
        </mxCell>
        <mxCell id="-5b9izDr8CAmfkEd_c0v-40" value="1" style="text;align=center;fontStyle=1;verticalAlign=middle;spacingLeft=3;spacingRight=3;strokeColor=none;rotatable=0;points=[[0,0.5],[1,0.5]];portConstraint=eastwest;html=1;" vertex="1" parent="-5b9izDr8CAmfkEd_c0v-1">
          <mxGeometry x="470" y="360" width="50" height="26" as="geometry" />
        </mxCell>
        <mxCell id="-5b9izDr8CAmfkEd_c0v-41" value="*" style="text;align=center;fontStyle=1;verticalAlign=middle;spacingLeft=3;spacingRight=3;strokeColor=none;rotatable=0;points=[[0,0.5],[1,0.5]];portConstraint=eastwest;html=1;" vertex="1" parent="-5b9izDr8CAmfkEd_c0v-1">
          <mxGeometry x="690" y="426" width="50" height="26" as="geometry" />
        </mxCell>
        <mxCell id="-5b9izDr8CAmfkEd_c0v-42" value="*" style="text;align=center;fontStyle=1;verticalAlign=middle;spacingLeft=3;spacingRight=3;strokeColor=none;rotatable=0;points=[[0,0.5],[1,0.5]];portConstraint=eastwest;html=1;" vertex="1" parent="-5b9izDr8CAmfkEd_c0v-1">
          <mxGeometry x="379" y="468" width="50" height="26" as="geometry" />
        </mxCell>
        <mxCell id="-5b9izDr8CAmfkEd_c0v-43" value="1" style="text;align=center;fontStyle=1;verticalAlign=middle;spacingLeft=3;spacingRight=3;strokeColor=none;rotatable=0;points=[[0,0.5],[1,0.5]];portConstraint=eastwest;html=1;" vertex="1" parent="-5b9izDr8CAmfkEd_c0v-1">
          <mxGeometry x="320" y="518" width="50" height="26" as="geometry" />
        </mxCell>
      </root>
    </mxGraphModel>
  </diagram>
  <diagram id="yO5j9DRan3hhlKzvfZh_" name="DCU">
    <mxGraphModel dx="1290" dy="557" grid="1" gridSize="10" guides="1" tooltips="1" connect="1" arrows="1" fold="1" page="1" pageScale="1" pageWidth="827" pageHeight="1169" math="0" shadow="0">
      <root>
        <mxCell id="0" />
        <mxCell id="1" parent="0" />
        <mxCell id="EG2KzswCdqti0Q_Ow_0W-5" value="CinéAnalytics (site web)" style="verticalAlign=top;align=left;spacingTop=8;spacingLeft=2;spacingRight=12;shape=cube;size=10;direction=south;fontStyle=4;html=1;whiteSpace=wrap;" parent="1" vertex="1">
          <mxGeometry x="230" y="410" width="480" height="410" as="geometry" />
        </mxCell>
        <mxCell id="EG2KzswCdqti0Q_Ow_0W-1" value="Visiteur" style="shape=umlActor;verticalLabelPosition=bottom;verticalAlign=top;html=1;outlineConnect=0;" parent="1" vertex="1">
          <mxGeometry x="90" y="480" width="30" height="60" as="geometry" />
        </mxCell>
        <mxCell id="EG2KzswCdqti0Q_Ow_0W-4" value="Parcourir le site" style="ellipse;whiteSpace=wrap;html=1;" parent="1" vertex="1">
          <mxGeometry x="250" y="460" width="160" height="70" as="geometry" />
        </mxCell>
        <mxCell id="-GyrnNOnkRPAVkovmepY-1" value="Rechercher des films" style="ellipse;whiteSpace=wrap;html=1;" vertex="1" parent="1">
          <mxGeometry x="240" y="640" width="140" height="70" as="geometry" />
        </mxCell>
        <mxCell id="-GyrnNOnkRPAVkovmepY-5" value="Ajouter un critère" style="ellipse;whiteSpace=wrap;html=1;" vertex="1" parent="1">
          <mxGeometry x="414" y="546" width="140" height="70" as="geometry" />
        </mxCell>
        <mxCell id="-GyrnNOnkRPAVkovmepY-6" value="Supprimer un critère" style="ellipse;whiteSpace=wrap;html=1;" vertex="1" parent="1">
          <mxGeometry x="436" y="624" width="140" height="70" as="geometry" />
        </mxCell>
        <mxCell id="-GyrnNOnkRPAVkovmepY-7" value="Valider filtrage" style="ellipse;whiteSpace=wrap;html=1;" vertex="1" parent="1">
          <mxGeometry x="414" y="708" width="140" height="70" as="geometry" />
        </mxCell>
        <mxCell id="-GyrnNOnkRPAVkovmepY-8" value="" style="endArrow=classic;html=1;rounded=0;exitX=0;exitY=0.5;exitDx=0;exitDy=0;dashed=1;" edge="1" parent="1" source="-GyrnNOnkRPAVkovmepY-5" target="-GyrnNOnkRPAVkovmepY-1">
          <mxGeometry width="50" height="50" relative="1" as="geometry">
            <mxPoint x="410" y="591" as="sourcePoint" />
            <mxPoint x="360" y="571" as="targetPoint" />
          </mxGeometry>
        </mxCell>
        <mxCell id="-GyrnNOnkRPAVkovmepY-11" value="include" style="text;html=1;align=center;verticalAlign=middle;whiteSpace=wrap;rounded=0;" vertex="1" parent="1">
          <mxGeometry x="332" y="569" width="60" height="30" as="geometry" />
        </mxCell>
        <mxCell id="-GyrnNOnkRPAVkovmepY-12" value="" style="endArrow=classic;html=1;rounded=0;exitX=0;exitY=0.5;exitDx=0;exitDy=0;dashed=1;entryX=0.5;entryY=1;entryDx=0;entryDy=0;" edge="1" parent="1" source="-GyrnNOnkRPAVkovmepY-7" target="-GyrnNOnkRPAVkovmepY-1">
          <mxGeometry width="50" height="50" relative="1" as="geometry">
            <mxPoint x="424" y="591" as="sourcePoint" />
            <mxPoint x="354" y="654" as="targetPoint" />
          </mxGeometry>
        </mxCell>
        <mxCell id="-GyrnNOnkRPAVkovmepY-13" value="include" style="text;html=1;align=center;verticalAlign=middle;whiteSpace=wrap;rounded=0;" vertex="1" parent="1">
          <mxGeometry x="360" y="701" width="60" height="30" as="geometry" />
        </mxCell>
        <mxCell id="-GyrnNOnkRPAVkovmepY-14" value="" style="endArrow=classic;html=1;rounded=0;exitX=0;exitY=0.5;exitDx=0;exitDy=0;dashed=1;entryX=1;entryY=0.5;entryDx=0;entryDy=0;" edge="1" parent="1" source="-GyrnNOnkRPAVkovmepY-6" target="-GyrnNOnkRPAVkovmepY-1">
          <mxGeometry width="50" height="50" relative="1" as="geometry">
            <mxPoint x="424" y="591" as="sourcePoint" />
            <mxPoint x="354" y="654" as="targetPoint" />
          </mxGeometry>
        </mxCell>
        <mxCell id="-GyrnNOnkRPAVkovmepY-15" value="extend" style="text;html=1;align=center;verticalAlign=middle;whiteSpace=wrap;rounded=0;" vertex="1" parent="1">
          <mxGeometry x="376" y="627" width="60" height="30" as="geometry" />
        </mxCell>
        <mxCell id="-GyrnNOnkRPAVkovmepY-16" value="" style="endArrow=none;html=1;rounded=0;exitX=0.5;exitY=0.5;exitDx=0;exitDy=0;exitPerimeter=0;entryX=0;entryY=0.5;entryDx=0;entryDy=0;" edge="1" parent="1" source="EG2KzswCdqti0Q_Ow_0W-1" target="EG2KzswCdqti0Q_Ow_0W-4">
          <mxGeometry width="50" height="50" relative="1" as="geometry">
            <mxPoint x="390" y="640" as="sourcePoint" />
            <mxPoint x="440" y="590" as="targetPoint" />
          </mxGeometry>
        </mxCell>
        <mxCell id="-GyrnNOnkRPAVkovmepY-17" value="" style="endArrow=none;html=1;rounded=0;exitX=0.5;exitY=0.5;exitDx=0;exitDy=0;exitPerimeter=0;entryX=0;entryY=0.5;entryDx=0;entryDy=0;" edge="1" parent="1" source="EG2KzswCdqti0Q_Ow_0W-1" target="-GyrnNOnkRPAVkovmepY-1">
          <mxGeometry width="50" height="50" relative="1" as="geometry">
            <mxPoint x="130" y="510" as="sourcePoint" />
            <mxPoint x="260" y="505" as="targetPoint" />
          </mxGeometry>
        </mxCell>
      </root>
    </mxGraphModel>
  </diagram>
</mxfile>
